<?xml version="1.0" standalone="no"?>
<!DOCTYPE svg PUBLIC "-//W3C//DTD SVG 20010904//EN"
 "http://www.w3.org/TR/2001/REC-SVG-20010904/DTD/svg10.dtd">
<svg version="1.0" xmlns="http://www.w3.org/2000/svg"
 width="970.000000pt" height="257.000000pt" viewBox="0 0 970.000000 257.000000"
 preserveAspectRatio="xMidYMid meet">

<g transform="translate(0.000000,257.000000) scale(0.100000,-0.100000)"
fill="#000000" stroke="none">
<path d="M1150 2319 c-93 -14 -229 -58 -323 -104 -201 -100 -368 -264 -469
-461 -310 -602 5 -1332 654 -1518 96 -28 283 -51 332 -41 85 17 144 57 184
124 24 40 27 57 27 131 0 77 -3 90 -32 142 -18 32 -33 68 -33 81 0 48 22 55
205 59 151 4 178 7 243 30 190 68 331 207 399 396 68 187 34 457 -84 657 -187
318 -565 519 -963 514 -47 -1 -110 -5 -140 -10z m410 -232 c150 -44 257 -101
358 -192 164 -149 242 -315 243 -515 1 -188 -85 -327 -250 -403 -63 -29 -74
-31 -241 -37 -150 -6 -182 -10 -225 -29 -100 -44 -155 -128 -155 -238 0 -51 6
-73 35 -129 40 -77 43 -103 15 -129 -17 -15 -31 -17 -92 -12 -456 39 -800 407
-799 856 0 58 7 138 15 177 74 348 347 609 703 674 88 16 298 4 393 -23z"/>
<path d="M960 1878 c-55 -38 -75 -73 -75 -133 0 -155 205 -215 285 -83 27 45
27 120 -1 165 -43 69 -146 94 -209 51z"/>
<path d="M1497 1877 c-54 -33 -77 -72 -77 -132 0 -162 210 -215 290 -73 75
133 -82 284 -213 205z"/>
<path d="M643 1453 c-77 -43 -105 -136 -63 -211 82 -145 300 -82 287 84 -2 31
-12 63 -25 81 -42 60 -135 81 -199 46z"/>
<path d="M1818 1449 c-102 -53 -102 -209 0 -267 52 -29 105 -28 157 3 54 31
79 81 73 145 -11 114 -127 174 -230 119z"/>
<path d="M5560 1959 c-121 -21 -230 -98 -270 -190 -15 -37 -21 -71 -21 -121 0
-158 84 -231 341 -298 187 -48 240 -82 240 -153 0 -38 -38 -87 -83 -107 -49
-23 -139 -26 -200 -8 -52 16 -104 68 -113 113 l-6 35 -104 0 -104 0 0 -35 c0
-50 35 -136 74 -181 40 -47 129 -96 205 -114 67 -16 219 -16 285 -1 168 39
266 152 266 306 0 157 -108 254 -344 310 -136 32 -180 50 -211 87 -82 98 44
210 200 178 63 -13 99 -39 123 -87 l17 -35 98 0 c53 -1 99 1 102 4 9 9 -24
117 -46 150 -34 52 -108 106 -175 128 -71 24 -197 33 -274 19z"/>
<path d="M3248 1843 c-20 -60 -98 -286 -173 -503 -76 -217 -140 -405 -142
-417 -5 -23 -4 -23 110 -23 l115 0 38 118 39 117 194 0 194 0 40 -117 39 -118
114 0 c64 0 114 4 114 9 0 9 -101 305 -210 616 -21 61 -62 180 -92 265 l-53
155 -145 3 -145 3 -37 -108z m252 -322 c33 -104 60 -193 60 -200 0 -8 -40 -11
-130 -11 -113 0 -130 2 -130 16 0 29 124 393 132 388 4 -3 35 -90 68 -193z"/>
<path d="M4758 1788 l-3 -93 -55 -5 -55 -5 0 -75 0 -75 55 -5 55 -5 5 -256 5
-256 28 -36 c49 -64 96 -82 214 -82 63 0 106 4 113 11 9 9 8 31 -5 86 -15 71
-18 75 -40 70 -32 -6 -70 4 -89 24 -14 13 -16 48 -16 230 l0 214 75 0 76 0 -3
78 -3 77 -72 3 -73 3 0 94 0 95 -105 0 -104 0 -3 -92z"/>
<path d="M4395 1683 c-45 -23 -76 -54 -91 -90 -22 -51 -34 -39 -34 32 l0 65
-100 0 -100 0 0 -395 0 -395 105 0 104 0 3 254 c3 240 4 256 24 283 41 55 80
73 160 73 l74 0 0 95 0 95 -57 0 c-33 -1 -71 -8 -88 -17z"/>
<path d="M6561 1673 c-35 -17 -64 -41 -84 -70 -17 -23 -34 -43 -39 -43 -4 0
-8 29 -8 65 l0 65 -105 0 -105 0 0 -545 0 -546 108 3 107 3 5 208 5 208 39
-47 c51 -60 103 -84 186 -83 113 0 188 39 250 131 85 127 95 356 22 506 -70
144 -248 212 -381 145z m127 -170 c102 -75 111 -312 16 -404 -29 -28 -43 -33
-91 -37 -74 -5 -117 21 -153 93 -21 43 -25 63 -25 140 1 124 37 196 115 228
29 12 111 0 138 -20z"/>
<path d="M7360 1686 c-94 -27 -153 -70 -199 -146 -40 -67 -29 -75 109 -82 53
-3 57 -1 91 36 33 36 42 40 96 44 79 6 118 -14 134 -67 22 -74 -6 -91 -176
-110 -221 -25 -305 -91 -305 -242 0 -71 22 -130 61 -166 77 -70 223 -88 323
-39 31 15 66 41 78 57 12 16 25 29 30 29 4 0 8 -22 8 -50 l0 -50 100 0 100 0
0 303 c-1 295 -1 303 -24 347 -12 25 -41 59 -65 77 -83 64 -248 90 -361 59z
m238 -491 c-5 -77 -25 -110 -89 -143 -48 -25 -118 -25 -158 0 -53 33 -50 118
5 150 17 10 71 27 120 37 136 28 127 32 122 -44z"/>
<path d="M8213 1679 c-171 -54 -261 -206 -251 -420 4 -81 10 -107 35 -162 54
-115 134 -176 266 -203 208 -44 415 81 429 257 l3 34 -99 0 -99 0 -10 -30
c-24 -74 -101 -115 -178 -95 -84 23 -128 100 -129 225 0 104 13 149 59 198 35
37 43 41 97 44 75 5 117 -19 145 -82 l20 -45 101 0 100 0 -7 38 c-9 52 -37
111 -69 150 -84 98 -265 138 -413 91z"/>
<path d="M9084 1685 c-106 -33 -185 -101 -228 -195 -99 -218 -18 -490 170
-570 144 -62 342 -38 451 54 34 29 90 132 79 144 -4 4 -48 9 -98 12 -90 5 -90
5 -110 -23 -36 -51 -110 -73 -186 -56 -75 17 -132 85 -132 159 l0 30 265 0
c240 0 266 2 272 17 12 31 -15 194 -41 247 -61 125 -186 197 -335 195 -36 -1
-84 -7 -107 -14z m193 -162 c40 -19 80 -74 85 -118 l3 -30 -169 -3 -169 -2 6
36 c8 45 46 96 89 117 43 21 111 21 155 0z"/>
</g>
</svg>
