<svg width="256" height="256" viewBox="0 0 256 256" fill="none" xmlns="http://www.w3.org/2000/svg">
<path d="M128 24C107.431 24 87.3235 30.0995 70.2207 41.5272C53.118 52.9548 39.7881 69.1974 31.9166 88.2009C24.0451 107.204 21.9855 128.115 25.9984 148.289C30.0112 168.463 39.9163 186.994 54.4609 201.539C69.0056 216.084 87.5366 225.989 107.711 230.002C127.885 234.015 148.796 231.955 167.799 224.083C186.803 216.212 203.045 202.882 214.473 185.779C225.901 168.677 232 148.569 232 128C231.971 100.426 221.004 73.9905 201.507 54.4931C182.01 34.9956 155.574 24.0291 128 24ZM74.08 197.5C79.8674 188.449 87.8401 181 97.2633 175.841C106.686 170.681 117.257 167.977 128 167.977C138.743 167.977 149.314 170.681 158.737 175.841C168.16 181 176.133 188.449 181.92 197.5C166.503 209.49 147.53 215.999 128 215.999C108.47 215.999 89.4967 209.49 74.08 197.5ZM96 120C96 113.671 97.8768 107.484 101.393 102.222C104.909 96.9594 109.907 92.8579 115.754 90.4359C121.601 88.0138 128.036 87.3801 134.243 88.6149C140.45 89.8496 146.152 92.8973 150.627 97.3726C155.103 101.848 158.15 107.55 159.385 113.757C160.62 119.965 159.986 126.399 157.564 132.246C155.142 138.093 151.041 143.091 145.778 146.607C140.516 150.123 134.329 152 128 152C119.513 152 111.374 148.629 105.373 142.627C99.3715 136.626 96 128.487 96 120ZM193.76 186.41C184.838 173.481 172.292 163.478 157.7 157.66C165.538 151.486 171.258 143.024 174.063 133.449C176.869 123.874 176.621 113.663 173.354 104.235C170.087 94.808 163.964 86.6329 155.835 80.8469C147.707 75.0609 137.977 71.9518 128 71.9518C118.023 71.9518 108.293 75.0609 100.165 80.8469C92.0362 86.6329 85.9128 94.808 82.6459 104.235C79.3791 113.663 79.1312 123.874 81.9368 133.449C84.7423 143.024 90.4619 151.486 98.3 157.66C83.7082 163.478 71.1624 173.481 62.24 186.41C50.9657 173.732 43.5968 158.064 41.0205 141.295C38.4442 124.526 40.7705 107.369 47.7192 91.891C54.6679 76.413 65.9428 63.2738 80.1861 54.0554C94.4294 44.837 111.034 39.9325 128 39.9325C144.966 39.9325 161.571 44.837 175.814 54.0554C190.057 63.2738 201.332 76.413 208.281 91.891C215.23 107.369 217.556 124.526 214.98 141.295C212.403 158.064 205.034 173.732 193.76 186.41Z" fill="#F8F8F8"/>
</svg>
